<svg width="100" height="21" viewBox="0 0 100 21" fill="none" xmlns="http://www.w3.org/2000/svg">
<path d="M15.2306 17.2188C15.2233 17.1738 15.2419 17.1285 15.2788 17.1017C15.3157 17.0748 15.3645 17.0709 15.4051 17.0916C16.0976 17.444 16.825 17.723 17.5755 17.9241C17.6167 17.9352 17.6606 17.9239 17.6913 17.8944C18.0175 17.5812 18.3231 17.2474 18.6063 16.8949C18.6333 16.861 18.6405 16.8153 18.6249 16.7748C18.3437 16.0453 17.9867 15.3473 17.5596 14.6924C17.5347 14.6543 17.5333 14.6054 17.556 14.5659C17.5787 14.5264 17.6217 14.503 17.6672 14.5053C17.8635 14.5156 18.0592 14.5207 18.2543 14.5207C18.8527 14.5206 19.4501 14.4721 20.0407 14.3758C20.0825 14.3689 20.1178 14.3409 20.1338 14.3016C20.2986 13.8982 20.4378 13.4848 20.5505 13.0638C20.5617 13.022 20.5498 12.9773 20.5193 12.9465C19.9555 12.3784 19.3322 11.8725 18.6601 11.4378C18.6219 11.413 18.6007 11.3689 18.6055 11.3235C18.6102 11.2782 18.64 11.2394 18.6825 11.223C19.4419 10.9314 20.1672 10.5576 20.8453 10.1082C20.8805 10.0848 20.9011 10.0449 20.8998 10.0026C20.8859 9.58456 20.847 9.16773 20.7834 8.75433C20.7768 8.7116 20.748 8.67558 20.7078 8.65968C19.9455 8.35908 19.1523 8.14343 18.3426 8.01664C18.2976 8.00956 18.2603 7.97781 18.2462 7.93447C18.2321 7.89112 18.2435 7.84352 18.2757 7.81128C18.8653 7.22211 19.3871 6.56874 19.8312 5.86338C19.8537 5.82755 19.856 5.78264 19.8374 5.74468C19.6483 5.36076 19.4358 4.98885 19.2011 4.63103L19.1959 4.64103C18.3394 4.66951 17.4891 4.79664 16.6617 5.0199L16.6278 5.02913C16.5839 5.04122 16.5369 5.02755 16.5063 4.99378C16.4758 4.96001 16.4669 4.91192 16.4833 4.86944C16.4874 4.85845 16.4917 4.84746 16.4958 4.83654C16.7965 4.04588 17.0064 3.22359 17.1213 2.38552C17.1433 2.37644 17.1655 2.36791 17.1875 2.35899C16.8265 2.05428 16.4452 1.77431 16.0464 1.52097L16.0438 1.52259C16.0456 1.56946 16.0197 1.61303 15.9776 1.63376C15.2407 1.99988 14.5466 2.44641 13.9079 2.96521L13.8805 2.98751C13.8453 3.0164 13.7968 3.023 13.7552 3.00456C13.7136 2.98613 13.6859 2.9458 13.6836 2.90032C13.683 2.88856 13.6824 2.87687 13.6817 2.86511C13.6364 2.04614 13.5009 1.23466 13.2777 0.445382C13.2659 0.403544 13.2776 0.358555 13.3085 0.327905C13.3173 0.319063 13.3263 0.310222 13.3349 0.301226C12.8678 0.167664 12.3919 0.0670086 11.9108 0L11.9062 0.00838022C11.9386 0.0522465 11.9368 0.112614 11.9018 0.154457C11.3792 0.787169 10.928 1.47559 10.5563 2.20723L10.5404 2.23859C10.52 2.27927 10.4784 2.30499 10.4329 2.30509C10.3874 2.30519 10.3457 2.27965 10.3251 2.23906L10.3091 2.20769C9.93378 1.47567 9.47861 0.787411 8.95193 0.155457C8.92429 0.122531 8.9164 0.0773238 8.93125 0.0369806C8.93502 0.026909 8.93894 0.0169142 8.9424 0.00684256C8.46643 0.0756013 7.9958 0.177305 7.53391 0.311221L7.53322 0.317526C7.5769 0.345752 7.59705 0.399182 7.58288 0.449226C7.36158 1.24152 7.22861 2.05587 7.1864 2.87741L7.18455 2.91262C7.18245 2.95811 7.1549 2.99853 7.11333 3.01712C7.07175 3.0357 7.02326 3.02927 6.98796 3.0005L6.96059 2.97836C6.32185 2.46359 5.62827 2.02084 4.89245 1.65813C4.85381 1.63926 4.82827 1.6011 4.82556 1.55818C4.8251 1.55195 4.82472 1.54573 4.82433 1.5395C4.42472 1.79535 4.04294 2.07803 3.68162 2.38559C3.70277 2.39397 3.72399 2.40205 3.74505 2.41066C3.8631 3.24822 4.07602 4.06963 4.37972 4.85906L4.3924 4.89197C4.40904 4.93438 4.40033 4.98255 4.36989 5.01645C4.33946 5.05034 4.29251 5.06418 4.24856 5.05219L4.2145 5.04312C3.3993 4.82645 2.56215 4.70293 1.71911 4.67493C1.71181 4.6614 1.70489 4.64771 1.69759 4.63411C1.44583 5.01832 1.21969 5.41873 1.02063 5.83271C1.02902 5.83271 1.0374 5.83186 1.04578 5.83163C1.49421 6.54896 2.02274 7.21298 2.62118 7.8109L2.64617 7.83581C2.67857 7.86782 2.69015 7.91537 2.67612 7.9587C2.66209 8.00203 2.62483 8.03376 2.57982 8.0407L2.54499 8.04624C1.7375 8.17581 0.946722 8.39383 0.186918 8.69636C0.146716 8.7124 0.118057 8.74858 0.11165 8.79138C0.0494696 9.20667 0.0122173 9.6253 4.48316e-05 10.045C-0.00109792 10.0873 0.0196698 10.1272 0.0549877 10.1504C0.733463 10.5959 1.45853 10.9659 2.21731 11.2539C2.25992 11.2701 2.28982 11.3089 2.29469 11.3542C2.29956 11.3995 2.27857 11.4437 2.24038 11.4686C1.57151 11.9049 0.951429 12.4118 0.390812 12.9806C0.360403 13.0114 0.348691 13.0562 0.360058 13.098C0.47446 13.52 0.615436 13.9344 0.782145 14.3386C0.79838 14.3778 0.833811 14.4058 0.875711 14.4124C1.45108 14.5039 2.03275 14.5498 2.61534 14.5499C2.82446 14.5499 3.03435 14.544 3.24501 14.5323C3.29053 14.5297 3.33362 14.553 3.35651 14.5924C3.3794 14.6318 3.3782 14.6808 3.35341 14.719C2.92953 15.3742 2.57562 16.0721 2.2975 16.8013C2.28207 16.8418 2.28933 16.8875 2.31657 16.9212C2.60159 17.2739 2.90915 17.6077 3.23732 17.9207C3.2682 17.9501 3.31219 17.9612 3.35333 17.95C4.10169 17.746 4.82674 17.4645 5.51674 17.1101C5.55728 17.0893 5.60608 17.0929 5.64303 17.1196C5.67997 17.1463 5.69879 17.1915 5.69172 17.2366C5.57265 17.9961 5.5324 18.7659 5.57163 19.5337C5.57383 19.5768 5.59873 19.6155 5.63706 19.6355C6.04756 19.8488 6.47185 20.0345 6.90708 20.1913C6.94745 20.2058 6.99244 20.198 7.02564 20.1709C7.61837 19.6847 8.15941 19.1388 8.64017 18.5417C8.66875 18.5062 8.71484 18.4898 8.75944 18.4991C8.80405 18.5085 8.8396 18.5422 8.85145 18.5862C9.04992 19.3232 9.32352 20.0379 9.66794 20.719C9.68732 20.7574 9.7255 20.7826 9.76835 20.7854C9.99387 20.8 10.2212 20.8075 10.4504 20.8078C10.6913 20.8078 10.9301 20.7997 11.1668 20.7835C11.2097 20.7805 11.2479 20.7551 11.2672 20.7166C11.6092 20.034 11.8801 19.318 12.0758 18.58C12.0875 18.5359 12.123 18.5022 12.1675 18.4926C12.2121 18.4831 12.2583 18.4993 12.287 18.5347C12.7705 19.1305 13.3141 19.6748 13.9093 20.159C13.9425 20.1859 13.9875 20.1935 14.0278 20.1789C14.4619 20.0208 14.8849 19.834 15.2941 19.6196C15.3324 19.5995 15.3572 19.5607 15.3593 19.5175C15.3958 18.7489 15.3526 17.9786 15.2306 17.2188ZM19.0042 13.125C19.088 13.1948 19.044 13.3318 18.935 13.3393C18.7087 13.3547 18.4812 13.3625 18.2525 13.3628C18.078 13.3628 17.9024 13.3583 17.7269 13.3492C17.2896 13.3264 16.8544 13.275 16.4239 13.1955C16.3985 13.1908 16.3754 13.178 16.3578 13.1592C16.0236 12.8019 15.6658 12.4673 15.2868 12.1578C15.2483 12.1266 15.233 12.0749 15.2483 12.0277C15.2637 11.9805 15.3065 11.9476 15.356 11.945C15.8444 11.916 16.3302 11.8543 16.8103 11.7605C16.8356 11.7555 16.8619 11.7588 16.8852 11.7698C17.6454 12.1312 18.3574 12.5864 19.0044 13.125L19.0042 13.125ZM18.1631 9.15988C18.5612 9.22222 18.9552 9.30846 19.343 9.41813C19.4481 9.44789 19.4633 9.59104 19.3668 9.64217C18.6231 10.0357 17.833 10.3346 17.0151 10.5318C16.99 10.5377 16.9637 10.5355 16.94 10.5254C16.489 10.3347 16.0258 10.1744 15.5535 10.0456C15.5056 10.0327 15.4706 9.99171 15.4654 9.94243C15.4602 9.89315 15.4858 9.84575 15.5299 9.82315C15.9645 9.59824 16.3835 9.34453 16.7842 9.0637C16.8053 9.04891 16.8305 9.04124 16.8562 9.04179C17.294 9.05268 17.7305 9.09212 18.1631 9.15988ZM18.2455 6.0958C17.7272 6.75556 17.128 7.34747 16.4618 7.85757C16.4414 7.87313 16.4164 7.88177 16.3907 7.88225C15.8958 7.89181 15.402 7.93486 14.9129 8.0111C14.8639 8.01891 14.8152 7.99579 14.7903 7.95293C14.7655 7.91007 14.7695 7.8563 14.8006 7.81766C15.1008 7.44096 15.3759 7.0449 15.624 6.63206C15.6372 6.61009 15.657 6.59286 15.6806 6.58285C16.4657 6.2519 17.2899 6.0227 18.1331 5.90083C18.2408 5.88522 18.3129 6.01 18.2455 6.0958ZM13.616 4.85161C13.619 4.82615 13.6301 4.80233 13.6477 4.78364C14.2226 4.17204 14.8718 3.63481 15.5802 3.18448C15.6725 3.12582 15.7897 3.21055 15.7629 3.31657C15.5572 4.13039 15.2505 4.91526 14.8498 5.65288C14.8376 5.67537 14.8184 5.69336 14.7953 5.70424C14.357 5.91091 13.9329 6.14638 13.5258 6.4091C13.4842 6.43606 13.4303 6.43471 13.3902 6.40568C13.3501 6.37665 13.3319 6.32593 13.3445 6.27801C13.4663 5.80905 13.557 5.33254 13.616 4.85161ZM6.23459 3.87966C6.58569 4.16245 6.91739 4.46852 7.22745 4.79579C7.24501 4.81444 7.25618 4.83819 7.25936 4.8636C7.32007 5.34432 7.41253 5.8205 7.53614 6.28901C7.54893 6.33689 7.53095 6.3877 7.4909 6.41689C7.45085 6.44607 7.39697 6.44762 7.35531 6.42078C6.9497 6.16127 6.52744 5.92873 6.09128 5.72469C6.0681 5.71388 6.04895 5.69597 6.03662 5.67356C5.63218 4.93798 5.32202 4.15437 5.11349 3.34125C5.08627 3.23522 5.20321 3.15004 5.2957 3.20847C5.62126 3.41403 5.93474 3.63813 6.23459 3.87966ZM2.67438 6.12563C2.60649 6.03983 2.67869 5.91451 2.78694 5.93027C3.61494 6.05095 4.42466 6.27441 5.19737 6.59546C5.22101 6.60532 5.24089 6.62248 5.25411 6.64443C5.50506 7.05892 5.78316 7.45635 6.08659 7.83412C6.11773 7.87266 6.12196 7.92639 6.09724 7.96933C6.07251 8.01227 6.02393 8.03559 5.97496 8.02802C5.49892 7.95583 5.01865 7.91502 4.53725 7.90585C4.51169 7.90543 4.48692 7.89689 4.46652 7.88148C3.79778 7.37377 3.19566 6.78385 2.67438 6.12563ZM1.56473 9.45319C2.38385 9.21875 3.22957 9.08998 4.08134 9.07001C4.10692 9.06944 4.13202 9.07703 4.15299 9.09169C4.54845 9.36638 4.96153 9.61479 5.38957 9.8353C5.43374 9.85779 5.45951 9.90516 5.4544 9.95446C5.44929 10.0038 5.41435 10.0448 5.36651 10.0578C4.88912 10.1888 4.42115 10.3519 3.96578 10.5461C3.94213 10.5562 3.91588 10.5585 3.89082 10.5527C3.0741 10.3607 2.28482 10.0666 1.54159 9.6773C1.44549 9.62672 1.45979 9.48333 1.56473 9.45319ZM3.18066 13.3767C2.78113 13.399 2.38063 13.3975 1.98128 13.3721C1.87234 13.3651 1.82752 13.2283 1.91094 13.1581C2.5558 12.6168 3.26647 12.1592 4.02606 11.796C4.0493 11.7849 4.0755 11.7816 4.10079 11.7865C4.57814 11.8775 5.06099 11.9368 5.54618 11.9639C5.59565 11.9665 5.63842 11.9992 5.65384 12.0463C5.66927 12.0934 5.65417 12.1451 5.61584 12.1765C5.23817 12.4873 4.88171 12.823 4.54886 13.1814C4.53138 13.2003 4.50832 13.2131 4.48305 13.2179C4.05284 13.2991 3.61778 13.3522 3.18066 13.3767ZM4.98809 16.0805C4.62969 16.2646 4.26055 16.427 3.88267 16.5668C3.78026 16.6046 3.68362 16.4976 3.73152 16.3997C4.10063 15.6433 4.56337 14.9364 5.10887 14.2955C5.12559 14.2759 5.14814 14.2622 5.17322 14.2564C5.64965 14.1449 6.11809 14.0017 6.57541 13.8277C6.62167 13.81 6.67407 13.8225 6.70731 13.8593C6.74054 13.896 6.74776 13.9494 6.72549 13.9937C6.50675 14.4313 6.31755 14.8831 6.15917 15.346C6.15086 15.3704 6.13496 15.3915 6.11381 15.4062C5.75365 15.6553 5.37761 15.8805 4.98809 16.0805ZM7.73857 17.816C7.48764 18.1278 7.21832 18.4243 6.93207 18.704C6.85403 18.7802 6.72218 18.722 6.72603 18.6129C6.75574 17.7718 6.89156 16.9378 7.13027 16.1307C7.13771 16.1062 7.15273 16.0846 7.17318 16.0692C7.56043 15.7752 7.92772 15.4557 8.2726 15.113C8.30764 15.078 8.36059 15.0681 8.4059 15.0881C8.4512 15.1082 8.47952 15.154 8.47718 15.2035C8.45522 15.6923 8.46601 16.182 8.50947 16.6693C8.51183 16.695 8.5059 16.7207 8.49256 16.7427C8.26484 17.1165 8.01298 17.4751 7.73857 17.816ZM8.39261 4.35687C8.37576 4.3375 8.36552 4.31326 8.3634 4.28767C8.29403 3.45106 8.32962 2.60906 8.46934 1.7813C8.48756 1.67366 8.62895 1.64291 8.68976 1.73409C8.90536 2.05637 9.10217 2.39083 9.27922 2.73579C9.48505 3.13689 9.66366 3.55138 9.81387 3.97645C9.82235 4.00063 9.82291 4.02689 9.81548 4.05141C9.67559 4.51524 9.56656 4.98782 9.48911 5.46605C9.48137 5.51503 9.4443 5.55419 9.39582 5.56459C9.34735 5.575 9.29746 5.55451 9.27031 5.51303C9.00359 5.10868 8.71039 4.72245 8.39261 4.35687ZM10.957 18.2836C10.8538 18.6732 10.7272 19.0561 10.578 19.4305C10.5376 19.5319 10.3935 19.5322 10.3527 19.4309C10.0381 18.6503 9.82277 17.8333 9.71177 16.999C9.70842 16.9734 9.71335 16.9475 9.72584 16.925C9.96203 16.4965 10.1693 16.0527 10.3462 15.5965C10.364 15.5503 10.4084 15.5197 10.4579 15.5196C10.5075 15.5195 10.552 15.5499 10.5699 15.596C10.7486 16.0516 10.9575 16.4946 11.1954 16.9222C11.2079 16.9447 11.2129 16.9706 11.2097 16.9962C11.1536 17.4304 11.0692 17.8604 10.957 18.2836ZM11.3887 5.46305C11.3098 4.98797 11.1999 4.51859 11.0594 4.05795C11.052 4.0335 11.0524 4.00731 11.0608 3.98314C11.3355 3.19266 11.7083 2.4398 12.1706 1.74224C12.2311 1.65106 12.3727 1.68073 12.3912 1.78837C12.5332 2.61311 12.5711 3.45242 12.5039 4.2866C12.5019 4.31214 12.4917 4.33638 12.475 4.35579C12.1608 4.72075 11.871 5.106 11.6075 5.50903C11.5804 5.55048 11.5307 5.57108 11.4823 5.5609C11.4339 5.55073 11.3967 5.51187 11.3887 5.46305ZM12.4112 16.6528C12.4521 16.1682 12.4608 15.6814 12.4371 15.1957C12.4346 15.1462 12.4627 15.1003 12.5079 15.0801C12.5531 15.0599 12.6061 15.0695 12.6413 15.1044C12.9897 15.4479 13.3607 15.7677 13.7518 16.0617C13.7724 16.0771 13.7875 16.0986 13.795 16.1232C14.035 16.927 14.1734 17.7576 14.2071 18.5958C14.2115 18.7049 14.08 18.7638 14.0015 18.688C13.3967 18.1028 12.8682 17.4434 12.4286 16.7257C12.4152 16.7038 12.4092 16.6783 12.4113 16.6528H12.4112ZM14.3341 13.8131C14.7921 13.9852 15.2611 14.1264 15.7379 14.2359C15.763 14.2416 15.7856 14.2553 15.8024 14.2748C16.3503 14.9137 16.8157 15.6188 17.1877 16.3737C17.236 16.4717 17.1398 16.5788 17.0372 16.5413C16.2468 16.2524 15.4957 15.8654 14.8017 15.3892C14.7805 15.3746 14.7645 15.3536 14.7561 15.3292C14.5961 14.8671 14.4052 14.4162 14.185 13.9795C14.1626 13.9354 14.1696 13.882 14.2027 13.8452C14.2357 13.8084 14.288 13.7956 14.3343 13.8131H14.3341Z" fill="white"/>
<path d="M30.692 17.865V8.82804C30.692 8.27263 30.7998 7.78746 31.0155 7.37253C31.2311 6.9576 31.5235 6.63415 31.8927 6.40218C32.2619 6.17022 32.6784 6.05423 33.1424 6.05423C33.8285 6.05423 34.3823 6.27313 34.8037 6.71093C35.2252 7.14873 35.4359 7.73681 35.4359 8.47519V17.865H39.4839V8.67122C39.4839 7.8871 39.6963 7.25491 40.121 6.77464C40.5457 6.29437 41.1371 6.05423 41.8951 6.05423C42.5616 6.05423 43.117 6.26333 43.5613 6.68153C44.0057 7.09972 44.2278 7.72701 44.2278 8.5634V17.865H48.3934V7.74008C48.3934 6.10651 47.954 4.84375 47.0751 3.95182C46.1963 3.05989 45.0544 2.61392 43.6495 2.61392C42.5452 2.61392 41.5896 2.87366 40.7826 3.39314C39.9756 3.91261 39.4186 4.60362 39.1115 5.46615H38.9546C38.7129 4.59055 38.2293 3.89628 37.504 3.38334C36.7787 2.87039 35.8999 2.61392 34.8674 2.61392C33.8481 2.61392 32.9725 2.86876 32.2406 3.37844C31.5088 3.88811 30.9861 4.58401 30.6724 5.46615H30.496V2.80995H26.5166V17.865H30.692ZM58.4889 18.159C60.0114 18.159 61.3264 17.8339 62.434 17.1838C63.5415 16.5336 64.3959 15.6254 64.9971 14.459C65.5982 13.2926 65.8988 11.9384 65.8988 10.3963C65.8988 8.84111 65.5982 7.48034 64.9971 6.31397C64.3959 5.1476 63.5415 4.23933 62.434 3.58917C61.3264 2.939 60.0114 2.61392 58.4889 2.61392C56.9664 2.61392 55.6514 2.939 54.5438 3.58917C53.4362 4.23933 52.5819 5.1476 51.9807 6.31397C51.3796 7.48034 51.079 8.84111 51.079 10.3963C51.079 11.9384 51.3796 13.2926 51.9807 14.459C52.5819 15.6254 53.4362 16.5336 54.5438 17.1838C55.6514 17.8339 56.9664 18.159 58.4889 18.159ZM58.5085 14.9245C57.8093 14.9245 57.2229 14.7269 56.7491 14.3316C56.2754 13.9362 55.9193 13.3955 55.6808 12.7094C55.4423 12.0233 55.323 11.2425 55.323 10.3669C55.323 9.49128 55.4423 8.71043 55.6808 8.02432C55.9193 7.33822 56.2754 6.79588 56.7491 6.39728C57.2229 5.99869 57.8093 5.79939 58.5085 5.79939C59.2011 5.79939 59.7794 5.99869 60.2434 6.39728C60.7073 6.79588 61.0585 7.33822 61.297 8.02432C61.5355 8.71043 61.6548 9.49128 61.6548 10.3669C61.6548 11.2425 61.5355 12.0233 61.297 12.7094C61.0585 13.3955 60.7073 13.9362 60.2434 14.3316C59.7794 14.7269 59.2011 14.9245 58.5085 14.9245ZM72.799 17.865V9.16129C72.8055 8.5144 72.9281 7.96061 73.1666 7.49995C73.4051 7.03928 73.7383 6.68806 74.1663 6.44629C74.5943 6.20452 75.0893 6.08364 75.6512 6.08364C76.4876 6.08364 77.1443 6.34338 77.6213 6.86285C78.0983 7.38233 78.3336 8.10274 78.327 9.02407V17.865H82.5024V8.27916C82.5024 7.10952 82.2868 6.10161 81.8555 5.25541C81.4243 4.40922 80.8199 3.75743 80.0423 3.30002C79.2647 2.84262 78.3532 2.61392 77.3077 2.61392C76.1903 2.61392 75.2396 2.87039 74.4554 3.38334C73.6713 3.89628 73.1126 4.59055 72.7794 5.46615H72.603V2.80995H68.6236V17.865H72.799ZM92.5901 18.159C94.1125 18.159 95.4276 17.8339 96.5351 17.1838C97.6427 16.5336 98.4971 15.6254 99.0982 14.459C99.6994 13.2926 100 11.9384 100 10.3963C100 8.84111 99.6994 7.48034 99.0982 6.31397C98.4971 5.1476 97.6427 4.23933 96.5351 3.58917C95.4276 2.939 94.1125 2.61392 92.5901 2.61392C91.0676 2.61392 89.7525 2.939 88.645 3.58917C87.5374 4.23933 86.683 5.1476 86.0819 6.31397C85.4807 7.48034 85.1802 8.84111 85.1802 10.3963C85.1802 11.9384 85.4807 13.2926 86.0819 14.459C86.683 15.6254 87.5374 16.5336 88.645 17.1838C89.7525 17.8339 91.0676 18.159 92.5901 18.159ZM92.6096 14.9245C91.9105 14.9245 91.324 14.7269 90.8503 14.3316C90.3766 13.9362 90.0204 13.3955 89.7819 12.7094C89.5434 12.0233 89.4242 11.2425 89.4242 10.3669C89.4242 9.49128 89.5434 8.71043 89.7819 8.02432C90.0204 7.33822 90.3766 6.79588 90.8503 6.39728C91.324 5.99869 91.9105 5.79939 92.6096 5.79939C93.3023 5.79939 93.8806 5.99869 94.3445 6.39728C94.8084 6.79588 95.1597 7.33822 95.3982 8.02432C95.6367 8.71043 95.7559 9.49128 95.7559 10.3669C95.7559 11.2425 95.6367 12.0233 95.3982 12.7094C95.1597 13.3955 94.8084 13.9362 94.3445 14.3316C93.8806 14.7269 93.3023 14.9245 92.6096 14.9245Z" fill="white"/>
</svg>
