<svg width="31" height="30" viewBox="0 0 31 30" fill="none" xmlns="http://www.w3.org/2000/svg">
<circle cx="15.5" cy="15" r="15" fill="#D94F00"/>
<path fill-rule="evenodd" clip-rule="evenodd" d="M16.817 7.5H23.0571V13.542H16.817V7.5ZM9.27295 16.5983V17.1894H10.3484V20.3164H11.09V17.1655H12.0914V16.5744L9.27295 16.5987V16.5983ZM8.71906 17.3311V16.74C8.12412 16.4801 7.43994 16.4015 6.73942 16.74C5.5906 17.2363 5.54954 19.6942 6.69878 20.1747C7.35866 20.4978 8.73499 20.348 8.87367 20.0642V18.1185H7.5053V18.6306H8.10778V19.6549C6.12814 20.5845 5.76154 16.1177 8.71906 17.3311ZM13.2976 18.5991H14.0061C14.5926 18.6229 14.7477 19.6942 13.9818 19.6861H13.2976V18.5991ZM13.2976 17.0946H14.0061C14.5926 17.197 14.3811 18.04 13.9818 18.0634H13.2976V17.0946ZM12.5644 16.5197V20.2849H14.5114C15.5052 19.9383 15.5462 18.4497 14.5114 18.2918C15.4645 18.1897 15.5135 16.4958 13.8678 16.4958L12.5644 16.5197ZM16.0021 17.5752V18.1343C16.5233 17.9926 17.6557 17.5987 17.5497 18.4339C16.5559 18.3707 15.8797 18.544 15.7658 19.1424C15.5785 20.4347 17.0122 20.5606 17.6151 19.9225V20.2298H18.2993V17.961C18.1283 17.2282 16.9963 17.1339 16.0021 17.5752ZM16.5802 19.0327C16.7353 18.8355 17.2322 18.8432 17.5661 18.9379V19.4343C17.0206 20.0011 16.1407 19.7415 16.5807 19.0322L16.5802 19.0327ZM19.7171 18.2448C19.8964 18.0557 20.8496 17.7011 20.9962 18.2448V20.2456H21.7617V18.1266C21.5987 17.244 20.7268 17.0865 19.6681 17.6853V17.3545H18.9432V20.2614H19.7087L19.7171 18.2448ZM24.1649 17.323L23.1631 18.6225L24.2223 20.2217L25.1428 20.1982L23.978 18.6622L25.0288 17.3464L24.1653 17.323H24.1649ZM22.3323 16.3695H23.0898V20.2217H22.3319V16.3699L22.3323 16.3695Z" fill="white"/>
<path fill-rule="evenodd" clip-rule="evenodd" d="M16.5713 7.5H22.9999V13.9286H16.5713V7.5Z" fill="white"/>
</svg>
