<svg xmlns="http://www.w3.org/2000/svg" width="30" height="31" fill="none" viewBox="0 0 30 31">
  <circle cx="15" cy="15.268" r="15" fill="#F2F6FC"/>
  <path fill="#FE6309" d="M24.634 16.283L13.348 4.998V6.73l9.553 9.553.004.004-8.275 8.275-.01-.01-8.27-8.269-.007-.007 4.06-4.06H8.64L4.578 16.28l.003.004 10.035 10.035.004-.003 10.023-10.023-.01-.009z"/>
  <path fill="#FE6309" d="M13.345 7.922v1.732l6.632 6.633-5.343 5.343-5.348-5.347-.007-.007 4.06-4.06h-1.763L7.513 16.28l.004.004 6.232 6.232.871.872.886-.886 6.209-6.209-8.37-8.37z"/>
  <path fill="#FE6309" d="M18.79 16.283l-3.31-3.313-.88-.88-.867.866-3.326 3.324 3.328 3.328.872.872.884-.885 3.308-3.303-.01-.009zm-4.168 2.447l-2.446-2.447-.007-.007 2.44-2.44 2.446 2.446-2.433 2.448z"/>
</svg>
